<svg xmlns="http://www.w3.org/2000/svg" width="32" height="32" viewBox="0 0 32 32" fill="none">
  <rect width="32" height="32" rx="6" fill="#2563eb"/>
  <path d="M8 20V18C8 15.7909 9.79086 14 12 14H20C22.2091 14 24 15.7909 24 18V20H8Z" fill="white" opacity="0.9"/>
  <path d="M6 20C6 18.8954 6.89543 18 8 18H24C25.1046 18 26 18.8954 26 20V22C26 22.5523 25.5523 23 25 23H7C6.44772 23 6 22.5523 6 22V20Z" fill="white"/>
  <circle cx="10.5" cy="20.5" r="2" fill="#1e293b"/>
  <circle cx="21.5" cy="20.5" r="2" fill="#1e293b"/>
  <path d="M12 14L11 11C10.4477 9.89543 9.34315 9.5 8 9.5H7" stroke="white" stroke-width="1.5" stroke-linecap="round" opacity="0.8"/>
  <path d="M20 14L21 11C21.5523 9.89543 22.6569 9.5 24 9.5H25" stroke="white" stroke-width="1.5" stroke-linecap="round" opacity="0.8"/>
</svg>
